<svg width="201" height="201" xmlns="http://www.w3.org/2000/svg" xmlns:xlink="http://www.w3.org/1999/xlink" xml:space="preserve" overflow="hidden"><g transform="translate(-592 -207)"><path d="M677.285 387.45 772.062 364.574 772.062 260.472 703.082 227.623 612.938 247.292 612.938 352.802ZM701.56 240.814 746.655 262.288 710.148 270.47 679.06 277.438 637.145 254.867ZM625.5 345.298 625.5 262.865 671.866 287.833 671.866 370.266ZM759.5 354.683 684.429 372.804 684.429 289.111 717.058 281.795 759.5 272.283Z" fill="#F97315"/><path d="M700.226 245.077 704.413 245.077 704.413 253.452 700.226 253.452Z" fill="#F97315"/><path d="M700.226 289.046 704.413 289.046 704.413 297.421 700.226 297.421Z" fill="#F97315"/><path d="M700.226 303.702 704.413 303.702 704.413 312.077 700.226 312.077Z" fill="#F97315"/><path d="M700.226 259.733 704.413 259.733 704.413 268.108 700.226 268.108Z" fill="#F97315"/><path d="M700.226 318.358 704.413 318.358 704.413 326.733 700.226 326.733Z" fill="#F97315"/><path d="M730.779 346.09 732.505 342.275 740.135 345.727 738.409 349.542Z" fill="#F97315"/><path d="M690.359 331.385 698.542 329.602 699.433 333.693 691.25 335.476Z" fill="#F97315"/><path d="M633.082 343.883 641.265 342.1 642.156 346.191 633.973 347.974Z" fill="#F97315"/><path d="M717.424 340.051 719.15 336.236 726.779 339.686 725.053 343.502Z" fill="#F97315"/><path d="M744.132 352.131 745.858 348.316 753.488 351.768 751.762 355.583Z" fill="#F97315"/><path d="M704.073 334.009 705.799 330.194 713.43 333.645 711.704 337.461Z" fill="#F97315"/><path d="M647.4 340.759 655.583 338.976 656.475 343.068 648.292 344.851Z" fill="#F97315"/><path d="M661.72 337.636 669.903 335.853 670.795 339.944 662.612 341.727Z" fill="#F97315"/></g></svg>