<svg width="201" height="201" xmlns="http://www.w3.org/2000/svg" xmlns:xlink="http://www.w3.org/1999/xlink" xml:space="preserve" overflow="hidden"><g transform="translate(-592 -207)"><path d="M679.938 263.531 713.438 263.531 713.438 257.25C713.438 252.644 709.669 248.875 705.062 248.875L617.125 248.875C612.519 248.875 608.75 252.644 608.75 257.25L608.75 313.781C608.75 318.388 612.519 322.156 617.125 322.156L629.688 322.156 629.688 343.094 650.625 322.156 663.188 322.156 663.188 280.281C663.188 271.069 670.725 263.531 679.938 263.531Z" fill="#F97315"/><path d="M767.875 271.906 679.938 271.906C675.331 271.906 671.562 275.675 671.562 280.281L671.562 336.812C671.562 341.419 675.331 345.188 679.938 345.188L734.375 345.188 755.312 366.125 755.312 345.188 767.875 345.188C772.481 345.188 776.25 341.419 776.25 336.812L776.25 280.281C776.25 275.675 772.481 271.906 767.875 271.906Z" fill="#F97315"/></g></svg>