<svg width="201" height="201" xmlns="http://www.w3.org/2000/svg" xmlns:xlink="http://www.w3.org/1999/xlink" xml:space="preserve" overflow="hidden"><g transform="translate(-592 -207)"><path d="M777.088 264.578C777.088 261.856 774.784 259.553 772.062 259.553L766.619 259.553C772.691 250.341 770.178 237.988 761.175 231.916 754.475 227.519 745.891 227.519 739.191 231.916L739.191 226.681C739.191 223.959 737.306 221.656 734.584 221.238 731.653 221.028 729.141 223.122 728.931 225.844 728.931 226.053 728.931 226.262 728.931 226.472L728.931 231.706C728.513 231.078 728.094 230.659 727.466 230.031 719.719 222.284 707.156 222.284 699.409 230.031 691.662 237.778 691.662 250.341 699.409 258.087 699.828 258.506 700.456 259.134 701.084 259.553L696.059 259.553C693.338 259.553 691.034 261.438 690.616 264.159 690.406 267.091 692.5 269.603 695.222 269.812 695.431 269.812 695.641 269.812 695.85 269.812L700.875 269.812C698.362 273.372 697.316 277.769 697.525 282.166 697.525 284.469 696.688 286.772 695.013 288.237L607.912 375.756C606.237 377.431 606.237 379.944 607.912 381.619L616.706 390.412C618.381 392.088 620.894 392.088 622.569 390.412L628.431 384.55 635.759 391.878C637.434 393.553 639.947 393.553 641.622 391.878L647.484 386.016C649.159 384.341 649.159 381.828 647.484 380.153L640.156 372.825 646.019 366.963 657.953 378.897C659.628 380.572 662.141 380.572 663.816 378.897L663.816 378.897 672.609 370.103C674.284 368.428 674.284 365.916 672.609 364.241L661.094 352.097 709.878 303.312C711.553 301.638 713.856 300.8 716.159 300.8 716.578 300.8 716.997 300.8 717.416 300.8 721.394 300.8 725.162 299.544 728.513 297.45L728.513 302.894C728.513 305.616 730.397 307.919 733.119 308.337 736.05 308.547 738.562 306.453 738.772 303.731 738.772 303.522 738.772 303.312 738.772 303.103L738.772 297.869C739.191 298.497 739.609 298.916 740.237 299.544 747.984 307.291 760.547 307.291 768.294 299.544 776.041 291.797 776.041 279.234 768.294 271.487L768.294 271.487C767.875 271.069 767.247 270.441 766.619 270.022L771.853 270.022C774.784 270.022 777.088 267.719 777.088 264.788L777.088 264.578ZM743.378 241.756C747.147 237.988 753.009 237.988 756.778 241.756 760.547 245.525 760.547 251.387 756.778 255.156 753.009 258.925 747.147 258.925 743.378 255.156 741.703 253.481 740.656 250.969 740.656 248.456 740.656 245.944 741.494 243.641 743.378 241.756ZM706.319 237.359C710.088 233.591 715.95 233.591 719.719 237.359 723.487 241.128 723.487 246.991 719.719 250.759 715.95 254.528 710.088 254.528 706.319 250.759 704.644 249.084 703.597 246.572 703.597 244.059 703.597 241.547 704.644 239.244 706.319 237.359ZM724.116 287.819C720.347 291.587 714.484 291.587 710.716 287.819 706.947 284.05 706.947 278.188 710.716 274.419 714.484 270.65 720.347 270.65 724.116 274.419 725.791 276.094 726.838 278.606 726.838 281.119 726.838 283.631 725.791 285.934 724.116 287.819ZM761.175 292.216C757.406 295.984 751.544 295.984 747.775 292.216 744.006 288.447 744.006 282.584 747.775 278.816 751.544 275.047 757.406 275.047 761.175 278.816 762.85 280.491 763.897 283.003 763.897 285.516 763.897 288.028 762.85 290.331 761.175 292.216Z" fill="#F97315"/></g></svg>