<?xml version="1.0" encoding="UTF-8"?>
<svg version="1.1" xmlns="http://www.w3.org/2000/svg" width="603" height="580">
<path d="M0 0 C1.45199295 0.00323273 1.45199295 0.00323273 2.93331909 0.00653076 C33.69554039 0.11623165 63.5435623 4.53513068 92.5 15.3125 C93.38558594 15.63734375 94.27117187 15.9621875 95.18359375 16.296875 C97.65081821 17.24548744 100.07387695 18.26280206 102.5 19.3125 C103.1280957 19.58288086 103.75619141 19.85326172 104.40332031 20.13183594 C126.60716536 29.72608997 148.2779417 40.4564275 167.5 55.3125 C169.046875 56.46298828 169.046875 56.46298828 170.625 57.63671875 C177.38563544 62.69190545 183.69299798 68.07263497 189.84765625 73.84765625 C191.95711064 75.80798868 194.08945942 77.67304683 196.3125 79.5 C199.41318363 82.12250592 202.01356467 85.04635012 204.63671875 88.140625 C206.59539486 90.42369401 208.63760008 92.61116603 210.6875 94.8125 C216.79527359 101.59545264 222.17852105 108.90676023 227.5 116.3125 C227.9345752 116.91690918 228.36915039 117.52131836 228.81689453 118.14404297 C236.72999234 129.27927752 243.21453716 141.2010446 249.5 153.3125 C250.07645264 154.42214111 250.07645264 154.42214111 250.66455078 155.55419922 C258.12761693 170.13249134 264.76554817 186.10373837 268.01049805 202.1809082 C268.51871437 204.39399384 269.20588379 206.46618795 269.96484375 208.60546875 C282.03899614 243.65921474 281.54938728 287.14121288 275.5 323.3125 C275.33371094 324.30813965 275.16742187 325.3037793 274.99609375 326.32958984 C266.1179016 377.2723276 242.08114227 427.23183942 206.64453125 465.015625 C204.7702343 467.02306873 203.00651106 469.07794329 201.25 471.1875 C191.93961644 481.84974253 180.79410958 490.85311594 169.5 499.3125 C168.68160645 499.9322168 168.68160645 499.9322168 167.84667969 500.56445312 C142.65788121 519.54252099 111.67873216 537.51607375 80.53686523 543.81396484 C78.22459847 544.31887997 78.22459847 544.31887997 75.125 545.78125 C70.35219996 547.79734657 65.56423296 548.78237387 60.5 549.8125 C59.11941406 550.11220703 59.11941406 550.11220703 57.7109375 550.41796875 C38.90023186 554.31411754 20.24156056 555.84384465 1.0625 555.6875 C-0.47597595 555.68052094 -0.47597595 555.68052094 -2.04553223 555.67340088 C-17.04536189 555.59377899 -31.74350509 555.24420405 -46.5 552.3125 C-47.67079102 552.08191895 -48.84158203 551.85133789 -50.04785156 551.61376953 C-56.12904304 550.38894419 -62.19591446 549.10220424 -68.2421875 547.71484375 C-69.2101123 547.49304443 -70.17803711 547.27124512 -71.17529297 547.04272461 C-73.5 546.3125 -73.5 546.3125 -75.5 544.3125 C-77.58846238 543.75184422 -77.58846238 543.75184422 -79.99609375 543.3984375 C-115.98303418 536.73347307 -150.97511436 513.60859663 -178.5 490.3125 C-179.05187988 489.85085449 -179.60375977 489.38920898 -180.17236328 488.91357422 C-190.7159706 480.09279757 -200.68613146 470.89978273 -209.5 460.3125 C-210.75490234 458.83330078 -210.75490234 458.83330078 -212.03515625 457.32421875 C-242.12259459 421.23383276 -263.15059631 377.34755548 -272.5 331.3125 C-272.69899902 330.37470703 -272.89799805 329.43691406 -273.10302734 328.47070312 C-279.83587177 295.45164299 -279.7416192 257.19755856 -272.5 224.3125 C-272.23203613 223.0951416 -271.96407227 221.8777832 -271.68798828 220.62353516 C-269.22691158 209.74102624 -266.77968936 198.94664651 -262.44677734 188.63916016 C-261.54225191 186.41633205 -260.79027208 184.19452917 -260.0703125 181.90625 C-258.26064927 176.35304387 -255.82785505 171.10639812 -253.375 165.8125 C-252.88636475 164.75587158 -252.39772949 163.69924316 -251.89428711 162.6105957 C-242.31081603 142.05987707 -231.34079062 122.40033175 -216.81054688 104.89941406 C-215.56755325 103.39429884 -214.35317855 101.86568221 -213.140625 100.3359375 C-200.2295689 84.42326645 -185.16781672 69.25574093 -168.5 57.3125 C-167.36627634 56.47388665 -166.2334816 55.63401621 -165.1015625 54.79296875 C-143.70555566 39.03813915 -118.92201909 23.53500413 -93.1640625 16.38671875 C-90.23339186 15.5275136 -87.59054366 14.55276213 -84.78515625 13.37890625 C-79.28402934 11.13585941 -73.70421997 9.64578447 -67.9375 8.25 C-66.36150024 7.86376465 -66.36150024 7.86376465 -64.75366211 7.46972656 C-43.28065432 2.29771919 -22.06506928 -0.08860617 0 0 Z " fill="#FD6701" transform="translate(304.5,12.6875)"/>
</svg>
